<svg data-v-4c681a64="" data-v-05a511f9="" xmlns="http://www.w3.org/2000/svg" width="16" height="16" viewBox="0 0 4.233 4.233" class="icon small text-icon-contrast text-undefined"><path fill="#fff" d="M.794 0H3.44c.44 0 .793.354.793.794V3.44c0 .44-.354.793-.793.793H.794A.792.792 0 0 1 0 3.44V.794C0 .354.354 0 .794 0z"></path><path fill="#e50012" d="M3.563.826h.406V3.41h-.406z"></path><path fill="#009fe8" d="M.265 3.34.792.81l.397.083-.527 2.53z"></path><path fill="#530000" d="M1.19.826h.406V3.41H1.19z"></path><path fill="#b4b4b5" d="M1.98.826h.407V3.41H1.98z"></path><path fill="#009844" d="M2.772.826h.405V3.41h-.405z"></path></svg>