<svg data-v-4c681a64="" data-v-05a511f9="" xmlns="http://www.w3.org/2000/svg" width="16" height="16" viewBox="0 0 4.233 4.233" class="icon small text-icon-contrast text-undefined"><path fill="#fff" d="M.794 0H3.44c.44 0 .793.354.793.794V3.44c0 .44-.354.793-.793.793H.794A.792.792 0 0 1 0 3.44V.794C0 .354.354 0 .794 0z"></path><path fill="#e95e5b" d="M3.518 2.116s.218-.129.218-.436-.218-.435-.218-.435L2.008.374l-1.51.87 1.51.872s.218.129.218.436-.218.435-.218.435.218.13.218.436-.218.436-.218.436l1.51-.872s.218-.129.218-.435-.218-.436-.218-.436z"></path><path fill="#231815" d="M3.845 1.68c0-.364-.26-.523-.27-.53h-.002L2.063.28a.11.11 0 0 0-.11 0L.46 1.14c-.026.015-.071.041-.071.104a.109.109 0 0 0 .053.094.408.408 0 0 1 .165.342.403.403 0 0 1-.165.343.108.108 0 0 0-.054.093.11.11 0 0 0 .054.094.408.408 0 0 1 .165.342.403.403 0 0 1-.165.343.108.108 0 0 0-.054.093.109.109 0 0 0 .055.095l1.51.871a.109.109 0 0 0 .11 0l1.51-.871a.619.619 0 0 0 .272-.53.636.636 0 0 0-.162-.436.635.635 0 0 0 .162-.437zM.813 1.552l1.14.658c.01.007.164.109.164.342a.42.42 0 0 1-.12.304L.68 2.096a.637.637 0 0 0 .145-.416.716.716 0 0 0-.012-.128zm0 .871 1.14.658c.011.008.164.11.164.342a.42.42 0 0 1-.12.305L.68 2.968a.637.637 0 0 0 .145-.416.701.701 0 0 0-.012-.128zm2.649.47-1.139.658a.716.716 0 0 0 .012-.128.637.637 0 0 0-.145-.415l1.318-.76a.416.416 0 0 1 .119.304.403.403 0 0 1-.164.342zm0-.87-1.139.657a.716.716 0 0 0 .012-.128.618.618 0 0 0-.272-.53L.716 1.245 2.008.498l1.455.839c.012.008.164.11.164.342a.405.405 0 0 1-.164.343z"></path></svg>